<?xml version="1.0" encoding="utf-8"?>
<!-- Generator: Adobe Illustrator 19.2.1, SVG Export Plug-In . SVG Version: 6.00 Build 0)  -->
<svg version="1.1" id="layer" xmlns="http://www.w3.org/2000/svg" width="70px" height="60px" xmlns:xlink="http://www.w3.org/1999/xlink" x="0px" y="0px"
	 viewBox="0 0 652 652" style="enable-background:new 0 0 652 652;" xml:space="preserve">
<style type="text/css">
	.st0{fill:#EE161F;}
</style>
<path class="st0" d="M321.2,70.7c-139,0-251.6,111.9-251.6,250c0,138.1,112.7,250,251.6,250c139,0,251.6-112,251.6-250
	C572.9,182.6,460.2,70.7,321.2,70.7 M187.5,326.7h-5.9v59.9h-12.1V254.8h18.9c16.7,0,29.6,10.5,29.6,34.8
	C218,315.8,203.2,326.7,187.5,326.7 M259,388.7c-20.1,0-27.5-23.5-27.5-68c0-44.4,7.4-68,27.5-68c20.1,0,27.5,23.6,27.5,68
	C286.5,365.1,279.1,388.7,259,388.7 M340.5,386.6l-14.6-62.2c-2.9,0.4-6.4,0.4-10.6,0.4v61.8h-12.1V254.8h18.9
	c16.7,0,29.6,10.9,29.6,33.9c0,15.4-5.7,25.6-13.8,31.3l15.5,66.7H340.5z M413.4,266.1h-19.3v120.5H382V266.1h-19.3v-11.3h50.8
	V266.1z M459.9,386.6l-5.3-34.7h-21.2l-5.3,34.7h-12.7l22.2-131.8h13.3L473,386.6H459.9z"/>
<path class="st0" d="M258.8,264.4c9.9,0,15.2,17.1,15.2,56.3c0,39.2-4.9,56.3-14.8,56.3c-9.9,0-15.2-17.1-15.2-56.3
	C244,281.5,248.9,264.4,258.8,264.4 M321.7,266.4h-6.5v47.1h6.5c11,0,17.6-8.7,17.6-23.9C339.3,274.5,332.7,266.4,321.7,266.4
	 M188.1,266.4h-6.4V315h6.4c11,0,17.6-8.7,17.6-24.7C205.7,274.5,199.1,266.4,188.1,266.4 M444,274.5c-1.2,12.8-2.8,24.5-4.9,39.2
	l-4,26.8h17.8l-4-26.8C446.8,299,445.1,287.3,444,274.5"/>
</svg>
